# xmcd CD database file
#
# Track frame offsets:
#	150
#	15370
#	36072
#	50245
#	61405
#	78622
#	101245
#	114712
#	131732
#	142825
#	162372
#	177172
#	192930
#	206332
#	227162
#	241132
#
# Disc length: 3684 seconds
#
# Revision: 0
# Processed by: cddbd v1.4PL0 Copyright (c) Steve Scherf et al.
# Submitted via: CDex 1.50
#
DISCID=db0e6210
DTITLE=Ed Burleson - Live at The Sons
DYEAR=2001
DGENRE=Country
TTITLE0=A-11
TTITLE1=Come On Home
TTITLE2=Is The Grass Really Greener
TTITLE3=Sorry For Nothin' But You
TTITLE4=Girl On The Bay
TTITLE5=Stingeree
TTITLE6=I Can Be Lonely By Myself
TTITLE7=Bitch and Moan
TTITLE8=There Stands The Glass
TTITLE9=11 Months and 29 Days
TTITLE10=The Way Your Treatin' Me
TTITLE11=Whole Lotta Gottas
TTITLE12=Big Mamou
TTITLE13=Rainy Day Woman
TTITLE14=No Closin' Time
TTITLE15=Rodeo Song
EXTD=YEAR: 2001
EXTT0=
EXTT1=
EXTT2=
EXTT3=
EXTT4=
EXTT5=
EXTT6=
EXTT7=
EXTT8=
EXTT9=
EXTT10=
EXTT11=
EXTT12=
EXTT13=
EXTT14=
EXTT15=
PLAYORDER=
